<svg width="111" height="48" viewBox="0 0 111 48" fill="none" xmlns="http://www.w3.org/2000/svg">
<g id="Bailsec-logo 3" clip-path="url(#clip0_11566_70987)">
<g id="&#208;&#161;&#208;&#187;&#208;&#190;&#208;&#185; 2">
<g id="&#208;&#161;&#208;&#187;&#208;&#190;&#208;&#185; 1">
<path id="Vector" d="M16.1838 24.9312L9.38347 36.7159L2.86865 47.9998H15.8889L17.8219 44.6535L18.7579 43.0294L22.4038 36.7159L22.6986 36.2104L22.0527 35.0918L18.4771 28.9046L17.5364 27.2712L16.1885 24.9358L16.1838 24.9312Z" fill="black" fill-opacity="0.5"/>
<path id="Vector_2" d="M32.036 14.5367L31.0999 12.9033L25.2263 2.75195L24.2902 1.12793L23.6397 0L22.9798 1.12793L22.0438 2.75195L16.1888 12.908L15.2528 14.5413L0.046875 40.858H47.2325L32.036 14.5367ZM23.6397 3.27613L30.1498 14.5413L31.0859 16.17L36.9501 26.3261H23.9158L23.621 25.8112L19.4088 18.5008L18.4728 16.8674L17.1249 14.5273L23.6397 3.27613ZM2.85499 39.234L9.37917 27.9501L16.1842 16.17L17.5321 18.5101L18.4681 20.1435L22.0438 26.3307L22.6896 27.4446L22.3948 27.9501L18.7676 34.2636L17.8316 35.8877L15.8987 39.234H2.85499ZM19.7037 35.8877L20.6397 34.2636L23.635 29.078L24.2856 27.9501H37.8955L44.4104 39.234H17.7754L19.7037 35.8877Z" fill="black"/>
<path id="Vector_3" d="M31.0899 24.9316V24.9363L30.1492 23.3029L23.639 12.0283L17.1289 23.3029L18.4768 25.6383L19.4175 27.2717L23.639 34.5775V34.5821L23.9339 35.0923H36.9542L31.0899 24.9363H31.0946L31.0899 24.9316Z" fill="black" fill-opacity="0.5"/>
<path id="Vector_4" d="M23.6402 37.844L20.6448 43.0296L19.7088 44.6537L17.7759 48H44.4108L37.896 36.7161H24.2907L23.6402 37.844Z" fill="black" fill-opacity="0.5"/>
<path id="Vector_5" d="M65.7516 26.5789C66.4444 27.2735 66.9162 28.1574 67.1075 29.1196C67.2989 30.0817 67.2013 31.0789 66.827 31.9857C66.4527 32.8924 65.8184 33.6681 65.0041 34.2151C64.1898 34.7621 63.2318 35.0558 62.2508 35.0594H53.1479V32.2186H62.2321C62.7766 32.193 63.2903 31.9587 63.6665 31.5643C64.0428 31.1699 64.2527 30.6458 64.2527 30.1008C64.2527 29.5557 64.0428 29.0316 63.6665 28.6373C63.2903 28.2429 62.7766 28.0086 62.2321 27.983H50.2976V25.1421H62.2321C62.3225 25.1492 62.4132 25.1492 62.5036 25.1421C63.0244 25.0579 63.4951 24.7826 63.8237 24.3699C64.1524 23.9573 64.3153 23.4369 64.2808 22.9105C64.2463 22.3841 64.0168 21.8894 63.6371 21.5232C63.2574 21.1569 62.7548 20.9454 62.2274 20.9299H53.1479L50.293 18.0657H62.2462C63.2305 18.0706 64.1912 18.3673 65.0068 18.9184C65.8224 19.4695 66.4562 20.2502 66.828 21.1616C67.1998 22.073 67.2929 23.0742 67.0954 24.0386C66.898 25.0029 66.4189 25.887 65.7189 26.5789H65.7469" fill="black" fill-opacity="0.5"/>
<path id="Vector_6" d="M82.5769 29.4102H79.4178L76.9139 24.3743L71.5878 35.0872H68.4287L68.4334 35.0779L75.332 21.1964L76.9139 18.0139L78.4958 21.1964L82.5769 29.4102Z" fill="black" fill-opacity="0.5"/>
<path id="Vector_7" d="M85.4036 35.0874H82.2398L80.8311 32.2512H83.9902L85.4036 35.0874Z" fill="black" fill-opacity="0.5"/>
<path id="Vector_8" d="M91.1093 18.0139V32.251L88.2778 35.0919V18.0139H91.1093Z" fill="black" fill-opacity="0.5"/>
<path id="Vector_9" d="M96.7678 28.2308L93.9409 31.0716V18.0139H96.7678V28.2308Z" fill="black" fill-opacity="0.5"/>
<path id="Vector_10" d="M110.953 32.2512V35.0921H93.9409V35.0874L96.7678 32.2512H110.953Z" fill="black" fill-opacity="0.5"/>
<path id="Vector_11" d="M78.229 41.9489C78.5766 42.1652 78.9757 42.2848 79.385 42.2952C80.0215 42.2952 80.321 41.9769 80.321 41.5791C80.321 41.1813 80.0777 40.9333 79.4224 40.718C78.5566 40.4091 78.1494 39.9317 78.1494 39.356C78.1494 38.5791 78.7766 37.952 79.8109 37.952C80.2247 37.9487 80.6325 38.0519 80.995 38.2515L80.775 38.8459C80.4793 38.6646 80.139 38.569 79.7922 38.5698C79.2727 38.5698 78.9872 38.8646 78.9872 39.225C78.9872 39.5854 79.2727 39.8007 79.9232 40.0393C80.761 40.3576 81.1869 40.7741 81.1869 41.4902C81.1869 42.3373 80.5317 42.9317 79.385 42.9317C78.9151 42.9392 78.4511 42.8264 78.0371 42.6041L78.229 41.9489Z" fill="black"/>
<path id="Vector_12" d="M82.7743 40.5961C82.7547 40.8184 82.7836 41.0424 82.8592 41.2524C82.9347 41.4624 83.055 41.6535 83.2117 41.8124C83.3684 41.9713 83.5577 42.0943 83.7667 42.1728C83.9756 42.2513 84.1991 42.2834 84.4217 42.2669C84.8794 42.2809 85.3347 42.1947 85.7556 42.0142L85.9053 42.6413C85.3989 42.8531 84.8534 42.9552 84.3047 42.9409C82.8211 42.9409 81.9365 41.9674 81.9365 40.5165C81.9365 39.0657 82.793 37.9097 84.1971 37.9097C85.7649 37.9097 86.1814 39.3137 86.1814 40.1796C86.18 40.3157 86.1706 40.4517 86.1534 40.5867L82.7743 40.5961ZM85.339 39.969C85.339 39.412 85.1097 38.5649 84.1268 38.5649C83.2423 38.5649 82.8538 39.3792 82.7836 39.969H85.339Z" fill="black"/>
<path id="Vector_13" d="M90.6925 42.6643C90.2505 42.8587 89.7711 42.953 89.2884 42.9404C88.9642 42.9566 88.6403 42.9036 88.3382 42.785C88.036 42.6664 87.7625 42.4849 87.5359 42.2525C87.3093 42.0202 87.1347 41.7422 87.0237 41.4372C86.9127 41.1322 86.8679 40.807 86.8922 40.4833C86.8735 40.1376 86.9285 39.7918 87.0533 39.4688C87.1782 39.1459 87.3701 38.8531 87.6165 38.6098C87.8629 38.3665 88.1581 38.1783 88.4826 38.0575C88.8071 37.9368 89.1535 37.8862 89.499 37.9092C89.9182 37.9041 90.3334 37.9904 90.7159 38.162L90.5146 38.8453C90.2013 38.6833 89.8516 38.6043 89.499 38.6159C88.3992 38.6159 87.8001 39.4303 87.8001 40.4365C87.779 40.6671 87.8068 40.8995 87.8816 41.1187C87.9564 41.3378 88.0765 41.5387 88.2341 41.7083C88.3918 41.8779 88.5834 42.0123 88.7965 42.1028C89.0096 42.1934 89.2394 42.238 89.471 42.2337C89.8417 42.2368 90.2083 42.1552 90.5427 41.995L90.6925 42.6643Z" fill="black"/>
<path id="Vector_14" d="M95.7428 41.5269C95.7428 42.0276 95.7428 42.4629 95.7849 42.842H95.008L94.9565 42.0557C94.7945 42.3326 94.5618 42.5613 94.2821 42.7184C94.0024 42.8755 93.686 42.9553 93.3653 42.9496C92.6118 42.9496 91.7085 42.5331 91.7085 40.8436V38.0354H92.579V40.7172C92.579 41.6532 92.8598 42.2476 93.6554 42.2476C93.9044 42.2432 94.1465 42.1653 94.3513 42.0237C94.5561 41.8822 94.7146 41.6833 94.8068 41.452C94.8639 41.3027 94.8909 41.1437 94.8863 40.984V38.0308H95.7615L95.7428 41.5269Z" fill="black"/>
<path id="Vector_15" d="M97.1935 39.5287C97.1935 38.9624 97.1935 38.4757 97.1514 38.0311H97.9189L97.947 38.9671H97.9891C98.0704 38.672 98.2434 38.4105 98.4832 38.2203C98.723 38.0302 99.0172 37.9213 99.323 37.9094C99.4069 37.9075 99.4905 37.9185 99.571 37.9422V38.7659C99.4725 38.7458 99.3721 38.7364 99.2715 38.7378C98.9723 38.7493 98.6877 38.8699 98.4713 39.0768C98.2549 39.2837 98.1217 39.5627 98.0968 39.861C98.0735 39.9955 98.061 40.1317 98.0593 40.2682V42.8329H97.1935V39.5287Z" fill="black"/>
<path id="Vector_16" d="M101.419 36.6786C101.419 36.8226 101.362 36.9606 101.26 37.0625C101.159 37.1643 101.021 37.2215 100.877 37.2215C100.733 37.2215 100.595 37.1643 100.493 37.0625C100.391 36.9606 100.334 36.8226 100.334 36.6786C100.332 36.6061 100.345 36.5341 100.371 36.4667C100.398 36.3994 100.439 36.3383 100.49 36.2871C100.541 36.2358 100.602 36.1956 100.669 36.1687C100.737 36.1419 100.809 36.129 100.881 36.131C100.953 36.1283 101.025 36.1407 101.093 36.1673C101.16 36.194 101.221 36.2344 101.271 36.286C101.322 36.3375 101.361 36.399 101.387 36.4666C101.412 36.5342 101.423 36.6064 101.419 36.6786ZM100.441 42.8424V38.0311H101.317V42.8424H100.441Z" fill="black"/>
<path id="Vector_17" d="M103.82 36.6506V38.0547H105.075V38.7193H103.82V41.3121C103.82 41.9112 103.993 42.2481 104.48 42.2481C104.651 42.252 104.821 42.2315 104.986 42.1873L105.023 42.8472C104.775 42.9315 104.513 42.9711 104.251 42.9642C104.077 42.9729 103.904 42.9444 103.743 42.8806C103.581 42.8169 103.435 42.7193 103.315 42.5945C103.049 42.2352 102.929 41.789 102.978 41.3449V38.6959H102.229V38.0313H102.978V36.8753L103.82 36.6506Z" fill="black"/>
<path id="Vector_18" d="M106.376 38.0308L107.429 40.8716C107.541 41.1899 107.658 41.569 107.738 41.8592C107.831 41.569 107.93 41.1992 108.047 40.8529L108.983 38.0448H109.919L108.627 41.4613C108.005 43.1088 107.574 43.9559 106.98 44.4707C106.677 44.751 106.306 44.9464 105.903 45.037L105.688 44.3022C105.966 44.2082 106.225 44.0638 106.451 43.8763C106.768 43.6128 107.019 43.2796 107.186 42.9028C107.222 42.8376 107.246 42.7662 107.256 42.6922C107.249 42.6128 107.228 42.5352 107.195 42.4629L105.417 38.0308H106.376Z" fill="black"/>
</g>
</g>
</g>
<defs>
<clipPath id="clip0_11566_70987">
<rect width="110.906" height="48" fill="white" transform="translate(0.046875)"/>
</clipPath>
</defs>
</svg>
