<svg width="169" height="48" viewBox="0 0 169 48" fill="none" xmlns="http://www.w3.org/2000/svg">
<g id="certik-logo-hor 1" clip-path="url(#clip0_11566_70961)">
<g id="&#208;&#161;&#208;&#187;&#208;&#190;&#208;&#185; 2">
<g id="Layer 1">
<path id="Vector" d="M34.5433 10.1244L34.7539 11.3921C34.9199 12.5766 34.9968 13.7718 34.984 14.9678C34.9821 17.6104 34.6632 20.2431 34.0343 22.8097C33.1827 26.297 31.6999 29.5989 29.6594 32.5524C27.3012 35.9455 23.8914 39.2813 18.921 41.9618L18.3157 42.2951L17.7091 41.9674C12.7373 39.2841 9.32613 35.951 6.96785 32.558C4.92734 29.6045 3.44462 26.3026 2.59298 22.8153C1.96326 20.2488 1.6444 17.616 1.64326 14.9734C1.63029 13.7756 1.70721 12.5784 1.87337 11.3921L2.08395 10.1202C2.11221 9.91415 2.05902 9.70519 1.93568 9.53773C1.81234 9.37027 1.62856 9.25749 1.4234 9.22336C1.21824 9.18922 1.00785 9.23643 0.836932 9.35493C0.666013 9.47344 0.548032 9.65391 0.508051 9.85802L0.298861 11.1313C0.116718 12.4037 0.0323298 13.6881 0.0464377 14.9734C0.0475498 17.7461 0.381862 20.5086 1.04218 23.2016C1.94072 26.8787 3.50474 30.3603 5.65692 33.4742C8.14629 37.057 11.7569 40.5797 16.9532 43.3759L17.9406 43.9072C18.0568 43.9703 18.187 44.0034 18.3192 44.0034C18.4515 44.0034 18.5816 43.9703 18.6979 43.9072L19.6852 43.3759C24.8759 40.5783 28.4866 37.0556 30.9815 33.4742C33.1337 30.3603 34.6977 26.8787 35.5963 23.2016C36.2566 20.5086 36.5909 17.7461 36.592 14.9734C36.6052 13.69 36.5208 12.4075 36.3396 11.1369L36.1178 9.85802C36.0833 9.64922 35.9671 9.46272 35.7951 9.33954C35.623 9.21635 35.409 9.16658 35.2002 9.20116C34.9914 9.23574 34.8049 9.35185 34.6817 9.52394C34.5585 9.69604 34.5088 9.91001 34.5433 10.1188V10.1244Z" fill="black"/>
<path id="Vector_2" d="M6.44467 9.2569L18.3127 5.63093L30.4458 9.33499C30.6492 9.39676 30.8688 9.37519 31.0564 9.27502C31.2439 9.17485 31.3839 9.00429 31.4457 8.80086C31.5075 8.59743 31.4859 8.3778 31.3857 8.19027C31.2856 8.00275 31.115 7.8627 30.9116 7.80093L18.547 4.0355C18.3947 3.98947 18.2322 3.98947 18.0798 4.0355L5.97887 7.72981C5.77544 7.79157 5.60488 7.93163 5.50471 8.11915C5.40454 8.30667 5.38297 8.52631 5.44474 8.72974C5.5065 8.93317 5.64656 9.10373 5.83408 9.2039C6.0216 9.30406 6.24124 9.32564 6.44467 9.26387V9.2569Z" fill="black"/>
<path id="Vector_3" d="M0.585811 10.3586L17.6 43.5655C17.6663 43.6953 17.7669 43.8044 17.8909 43.8811C18.0149 43.9577 18.1575 43.9989 18.3032 44.0002C18.449 44.0015 18.5923 43.9628 18.7176 43.8884C18.8429 43.814 18.9455 43.7066 19.0141 43.5781L29.3899 24.1722L29.4053 24.1415L36.0464 10.3349C36.0922 10.2405 36.1189 10.138 36.1251 10.0332C36.1312 9.9285 36.1167 9.82357 36.0823 9.72444C36.048 9.6253 35.9944 9.53391 35.9247 9.45548C35.855 9.37706 35.7705 9.31312 35.6761 9.26734C35.5817 9.22155 35.4792 9.19481 35.3745 9.18864C35.2697 9.18247 35.1648 9.19699 35.0656 9.23137C34.9665 9.26575 34.8751 9.31932 34.7967 9.38903C34.7183 9.45873 34.6543 9.54319 34.6085 9.6376L27.9744 23.4246L18.3252 41.4708L2.00691 9.62924C1.90619 9.44796 1.73895 9.31294 1.54051 9.2527C1.34208 9.19246 1.12799 9.21172 0.943498 9.30642C0.759003 9.40111 0.618544 9.56381 0.551799 9.76016C0.485054 9.9565 0.49725 10.1711 0.585811 10.3586Z" fill="black"/>
<path id="Vector_4" d="M8.72911 25.1486H27.6511C27.8571 25.14 28.0517 25.0521 28.1944 24.9033C28.3371 24.7545 28.4168 24.5563 28.4168 24.3502C28.4168 24.144 28.3371 23.9458 28.1944 23.797C28.0517 23.6483 27.8571 23.5604 27.6511 23.5518H8.72911C8.52313 23.5604 8.32845 23.6483 8.18575 23.797C8.04305 23.9458 7.96338 24.144 7.96338 24.3502C7.96338 24.5563 8.04305 24.7545 8.18575 24.9033C8.32845 25.0521 8.52313 25.14 8.72911 25.1486Z" fill="black"/>
<path id="Vector_5" d="M61.5038 18.258H49.1964C48.9838 18.2594 48.7804 18.3445 48.63 18.4949C48.4797 18.6452 48.3946 18.8487 48.3931 19.0613V28.9406C48.3946 29.1532 48.4797 29.3567 48.63 29.507C48.7804 29.6573 48.9838 29.7424 49.1964 29.7439H61.5038V31.4105H49.1964C48.8717 31.4119 48.5498 31.3491 48.2495 31.2255C47.9492 31.1019 47.6763 30.92 47.4467 30.6904C47.2171 30.4607 47.0352 30.1879 46.9116 29.8875C46.788 29.5872 46.7251 29.2654 46.7266 28.9406V19.0626C46.7249 18.7378 46.7877 18.4159 46.9112 18.1155C47.0347 17.8151 47.2166 17.5422 47.4463 17.3125C47.676 17.0828 47.9489 16.901 48.2493 16.7774C48.5497 16.6539 48.8716 16.5911 49.1964 16.5928H61.5038V18.258Z" fill="black"/>
<path id="Vector_6" d="M84.6174 16.5913V18.2648H72.7633V23.1641H82.2926V24.8515H72.7619V29.7508H84.616V31.4173H71.0884V16.5913H84.6174Z" fill="black"/>
<path id="Vector_7" d="M109.028 19.0822V23.425C109.029 23.7497 108.966 24.0716 108.842 24.3719C108.719 24.6722 108.537 24.9451 108.307 25.1748C108.078 25.4045 107.805 25.5865 107.504 25.7103C107.204 25.8341 106.882 25.8973 106.558 25.8962H104.293L108.945 31.4119H106.743L102.112 25.8962H96.6728C96.5491 25.8962 96.2813 25.8688 95.8695 25.8139V31.4119H94.2085V16.6123H106.558C106.882 16.6109 107.204 16.6737 107.505 16.7973C107.805 16.9209 108.078 17.1028 108.307 17.3324C108.537 17.5621 108.719 17.8349 108.843 18.1353C108.966 18.4356 109.029 18.7574 109.028 19.0822ZM96.6783 24.2059H106.558C106.661 24.2073 106.763 24.188 106.858 24.1492C106.953 24.1104 107.04 24.0529 107.113 23.9801C107.186 23.9073 107.243 23.8207 107.282 23.7254C107.321 23.63 107.34 23.5279 107.339 23.425V19.0822C107.34 18.9775 107.321 18.8736 107.283 18.7764C107.244 18.6792 107.186 18.5907 107.113 18.516C107.042 18.4393 106.955 18.3785 106.859 18.3376C106.763 18.2967 106.659 18.2767 106.555 18.2789H96.6783C96.4657 18.2803 96.2623 18.3654 96.1119 18.5158C95.9616 18.6661 95.8765 18.8696 95.875 19.0822V23.425C95.8729 23.5294 95.8929 23.6332 95.9338 23.7293C95.9746 23.8255 96.0354 23.9119 96.1121 23.9828C96.1869 24.0559 96.2755 24.1133 96.3727 24.1516C96.4699 24.1899 96.5739 24.2084 96.6783 24.2059Z" fill="black"/>
<path id="Vector_8" d="M117.877 16.5913H132.696V18.2648H126.131V31.4173H124.457V18.2579H117.877V16.5913Z" fill="black"/>
<path id="Vector_9" d="M141.671 31.4104V16.5913H143.344V31.4104H141.671Z" fill="black"/>
<path id="Vector_10" d="M165.586 16.5913H167.726L161.532 24.0008L167.747 31.4104H165.586L160.07 24.8446H155.295V31.4104H153.607V16.5913H155.295V23.1571H160.07L165.586 16.5913Z" fill="black"/>
</g>
</g>
</g>
<defs>
<clipPath id="clip0_11566_70961">
<rect width="168" height="48" fill="white" transform="translate(0.046875)"/>
</clipPath>
</defs>
</svg>
