<svg width="172" height="48" viewBox="0 0 172 48" fill="none" xmlns="http://www.w3.org/2000/svg">
<g id="image 343" clip-path="url(#clip0_11566_70974)">
<g id="Layer_1-2">
<g id="Group">
<path id="Vector" d="M50.956 4V14.9091H47.3196V4H43.6832V14.9091H40.0469V4H36.4105V14.9091H18.2287V4H14.5923V14.9091V18.5455H50.956V22.1818H47.3196H43.6832H10.956V4H7.3196V22.1818H3.68324V4H0.046875V22.1818V25.8182V44H3.68324V33.0909H7.3196V44H10.956V33.0909H14.5923V44H18.2287V33.0909H36.4105V44H40.0469V33.0909V29.4545H10.956H7.3196H3.68324V25.8182H7.3196H10.956H43.6832V44H47.3196V25.8182H50.956V44H54.5923V25.8182V22.1818V18.5455V14.9091V4H50.956Z" fill="#1B1B1E"/>
<g id="Group_2">
<path id="Vector_2" d="M79.163 18.5454V22.4931H70.2812V18.5454H67.3198V29.4022H70.2812V25.4545H79.163V29.4022H82.1244V18.5454H79.163Z" fill="#1B1B1E"/>
<g id="Group_3">
<path id="Vector_3" d="M135.425 25.4546H132.463V29.4023H135.425V25.4546Z" fill="#1B1B1E"/>
<path id="Vector_4" d="M135.424 18.5454H132.463V22.4931H123.579V18.5454H120.618V29.4022H123.579V25.4545H132.463L135.424 22.4931V18.5454Z" fill="#1B1B1E"/>
</g>
<path id="Vector_5" d="M97.9173 18.5454H85.0854V29.4022H88.0468V25.4545H96.9309V29.4022H99.8923V18.5454H97.9173ZM88.0468 22.4931V21.5068H96.9309V22.4931H88.0468Z" fill="#1B1B1E"/>
<path id="Vector_6" d="M117.658 21.5068V18.5454H105.813H104.827H102.852V29.4022H104.827H105.813H117.658V26.4409H105.813V21.5068H117.658Z" fill="#1B1B1E"/>
<path id="Vector_7" d="M153.19 21.5068V18.5454H141.345H140.358H138.386V29.4022H140.358H141.345H153.19V26.4409H141.345V25.4545H153.19V22.4931H141.345V21.5068H153.19Z" fill="#1B1B1E"/>
<path id="Vector_8" d="M167.995 18.5454V25.4545L159.113 18.5454H156.151V29.4022H159.113V22.4931L167.995 29.4022H170.956V18.5454H167.995Z" fill="#1B1B1E"/>
</g>
</g>
</g>
</g>
<defs>
<clipPath id="clip0_11566_70974">
<rect width="171" height="48" fill="white" transform="translate(0.046875)"/>
</clipPath>
</defs>
</svg>
